<?xml version="1.0" encoding="utf-8"?>
<!-- Generator: Adobe Illustrator 19.0.0, SVG Export Plug-In . SVG Version: 6.00 Build 0)  -->
<svg version="1.1" id="Layer_1" xmlns="http://www.w3.org/2000/svg" xmlns:xlink="http://www.w3.org/1999/xlink" x="0px" y="0px"
	 viewBox="0 0 500 500" style="enable-background:new 0 0 500 500;" xml:space="preserve">
<style type="text/css">
	.st0{fill:#2D0911;}
	.st1{fill:#FF3C91;}
	.st2{fill:#FF3F94;}
</style>
<g id="XMLID_15_">
	<polyline id="XMLID_19_" class="st0" points="355.6,67.5 156.6,67.5 156.6,432.5 157.6,432.5 429.2,432.5 429.2,144.3 356.5,68.4 
		355.6,67.5 	"/>
	<rect id="XMLID_20_" x="70.8" y="87" class="st1" width="264.7" height="91"/>
	<polygon id="XMLID_21_" class="st1" points="355.6,67.5 355.6,144.3 429.2,144.3 	"/>
	<g id="XMLID_31_">
		<g id="XMLID_61_">
			<g id="XMLID_79_">
				<path id="XMLID_80_" class="st2" d="M252.6,370.1c0,1.2-0.4,1.9-1.6,1.9h-18.6c-1.1,0-1.4-0.6-1.4-1.9V237.7
					c0-1.2,0.5-1.5,1.4-1.5h18.8c1.1,0,1.4,0.2,1.4,1.5V370.1z"/>
			</g>
		</g>
		<g id="XMLID_29_">
			<g id="XMLID_86_">
				<path id="XMLID_87_" class="st2" d="M274.5,323.4c0-29.7,18.8-54.7,48.7-54.7c4,0,7,0.4,10,1.4v-33.2c0-1,0.4-1.4,1.1-1.4h19.2
					c0.7,0,0.9,0.4,0.9,1.2V349c0,4.3,0.4,9.8,0.5,13.1c0.2,1,0,1.4-0.9,2c-11.1,6.3-23.6,10-35.2,10
					C292.9,374.2,274.5,357.6,274.5,323.4z M333.2,289.6c-2.6-1.2-6.3-1.8-10.4-1.8c-15.8,0-26.6,13.5-26.6,34.4
					c0,23.1,11.6,32.4,25,32.4c4.4,0,8.8-0.8,12-2V289.6z"/>
			</g>
		</g>
	</g>
	<g id="XMLID_5_">
		<g id="XMLID_144_">
			<path id="XMLID_157_" class="st0" d="M134,162.5c0,0.7-0.2,0.9-0.9,0.9h-10.7c-0.7,0-0.9-0.3-0.9-0.9v-60.1
				c0-0.6,0.2-0.7,0.9-0.7h10.8c0.5,0,0.7,0.2,0.7,0.7V162.5z"/>
			<path id="XMLID_155_" class="st0" d="M145.8,101.6h13c0.5,0,0.7,0.1,0.9,0.6c5.4,12.7,12.2,35,13.7,39.5c0,0-0.1-1.4-0.1-8.8
				v-30.6c0-0.5,0.2-0.7,0.6-0.7h9.8c0.5,0,0.6,0.2,0.6,0.8v60.1c0,0.7-0.2,0.9-0.8,0.9h-11.6c-0.6,0-0.7-0.2-1-0.7
				c-4-11.3-11.8-35.6-14.6-44.3c0,0-0.2,5.7-0.1,14.1l-0.1,30.1c0,0.5-0.1,0.8-0.5,0.8h-9.7c-0.5,0-0.6-0.1-0.6-0.9v-60.1
				C145.2,101.8,145.4,101.6,145.8,101.6z"/>
			<path id="XMLID_152_" class="st0" d="M244.9,102.3c0-0.4,0.2-0.6,0.5-0.7c4-0.1,9.4-0.2,14.4-0.2c16.5,0,24.9,12,24.9,30.2
				c0,27.3-16.5,31.8-26.4,31.8c-5.3,0-9.2-0.1-13-0.2c-0.3,0-0.5-0.2-0.5-0.8V102.3z M257.1,152.6c1.2,0-0.3,0.1,1.7,0.1
				c9.8,0,14.7-4.6,14.7-20.8c0-14.9-4-20.7-13.7-20.7c-3,0-2,0.1-2.7,0.2V152.6z"/>
			<path id="XMLID_146_" class="st0" d="M195.7,102.3c0-0.4,0.2-0.6,0.5-0.7c4-0.1,9.4-0.2,14.4-0.2c16.5,0,24.9,12,24.9,30.2
				c0,27.3-16.5,31.8-26.4,31.8c-5.3,0-9.2-0.1-13-0.2c-0.3,0-0.5-0.2-0.5-0.8V102.3z M208,152.6c1.2,0-0.3,0.1,1.7,0.1
				c9.8,0,14.7-4.6,14.7-20.8c0-14.9-4-20.7-13.7-20.7c-3,0-2,0.1-2.7,0.2V152.6z"/>
		</g>
	</g>
</g>
</svg>
